<?xml version="1.0" encoding="utf-8"?>
<!-- Generator: Adobe Illustrator 14.0.0, SVG Export Plug-In  -->
<!DOCTYPE svg PUBLIC "-//W3C//DTD SVG 1.1//EN" "http://www.w3.org/Graphics/SVG/1.1/DTD/svg11.dtd" [
	<!ENTITY ns_flows "http://ns.adobe.com/Flows/1.0/">
]>
<svg version="1.1"
	 xmlns="http://www.w3.org/2000/svg" xmlns:xlink="http://www.w3.org/1999/xlink" xmlns:a="http://ns.adobe.com/AdobeSVGViewerExtensions/3.0/"
	 x="0px" y="0px" width="612px" height="792px" viewBox="-162.914 -168.997 612 792"
	 enable-background="new -162.914 -168.997 612 792" xml:space="preserve">
<defs>
</defs>
<path d="M225.651,29.211c-0.941,0.051-1.772-0.01-2.317-0.356c-3.986-9.508-11.899-15.807-26.91-13.723
	c-0.418,0.058-0.174,0.777-0.535,0.891c-19.239,4.901-14.062,34.269-14.612,57.386c2.083,8.966,5.388,16.71,14.612,18.535
	c0.536-0.18,0.316,0.397,0.356,0.713c4.107,0.479,8.1,0.205,12.476,0.178c11.28-3.333,16.317-12.911,15.326-28.515
	c-6.194-0.637-14.057,0.393-19.96-0.535c-0.289-4.176-0.3-9.548,0-13.723c11.888-0.182,25.477-0.529,37.069,0.178
	c0.421,13.317,0.824,28.148-3.921,36.891c-4.489,17.667-28.79,26.455-49.366,19.069c-12.164-3.698-19.237-12.486-21.921-25.664
	c-4.391-30.241-5.132-72.345,21.742-77.703c0.562,0.086,0.134-0.817,0.534-0.891c22.371-6.203,43.308,3.051,49.901,19.248
	C237.661,26.852,228.946,25.789,225.651,29.211z"/>
<path d="M143.135,115.468c-3.472,28.785-18.839,45.676-43.841,52.931c1.228,2.455,3.146,4.22,3.921,7.129
	c19.197,26.783,33.861,58.099,64.693,73.249c1.076-0.066,1.969,0.05,2.851,0.178c0.647,1.492,3.743,0.533,5.347,1.068
	c0.41,2.562,0.064,5.878,0.18,8.733c-3.099,2.843-9.935,1.947-14.614,3.207c-2.709-1.864-9.803,0.655-11.94-1.782
	c-1.068,0-2.139,0-3.208,0c-0.443-0.327-0.677-0.867-1.246-1.067c-2.45,0.487-2.824-1.099-4.99-0.893
	c-0.414-0.121-0.26-0.81-0.713-0.891c-27.145-12.183-37.729-40.927-54.535-63.446c-2.7-5.854-6.708-10.402-9.089-16.574
	c-1.589-1.203-2.116-3.469-3.208-5.168c-7.526-0.018-15.181,0.092-22.455-0.178c0.696,20.034-2.44,51.359,1.96,67.188
	c1.271,6.098,7.031,7.703,14.258,7.843c0.766-0.173,0.313,0.875,0.891,0.891c4.404-0.543,6.761,0.962,10.693,0.892
	c0.412,3.035,0.063,6.829,0.178,10.158c-24.887-1.172-53.933-0.418-78.238-0.355c0.115-3.093-0.232-6.648,0.178-9.445
	c4.419-0.809,8.417-2.039,13.367-2.316c0.766,0.172,0.313-0.875,0.891-0.892c0.651-0.12,1.296-0.249,2.138-0.179
	c5.942-2.137,6.614-9.544,8.376-15.861c0-45.445,0-90.891,0-136.336c-1.369-1.126-0.953-4.037-1.069-6.416
	c-1.505-7.881-8.323-10.449-16.218-11.941c-3.465,0.495-4.995-0.946-7.485-1.426c-0.399-2.57-0.071-5.869-0.178-8.732
	c0.239-0.117,0.332-0.381,0.356-0.713c29.958-0.612,62.888-0.65,93.743-0.356c0.502,0.151,0.695,0.612,1.069,0.891
	c3.719-0.036,6.781,0.585,9.267,1.782c3.307,0.198,5.188,1.822,8.198,2.317c0.646-0.171,0.181,0.769,0.535,0.891
	C131.66,76.568,141.814,91.603,143.135,115.468z M54.562,156.815c39.27,2.972,63.166-9.428,60.416-48.476
	c-3.992-27.223-31.137-32.152-64.693-29.228c-0.416,25.129-0.06,51.029-0.178,76.456C51.313,156.262,54.058,155.418,54.562,156.815z
	"/>
</svg>
